<svg xmlns="http://www.w3.org/2000/svg" width="24" height="24.001" viewBox="0 0 24 24.001">
    <defs>
        <style>
            .cls-1{fill:#00489c}
        </style>
    </defs>
    <path id="Path_1889" d="M18.192 12.385A5.808 5.808 0 1 0 24 18.193a5.814 5.814 0 0 0-5.808-5.808zm2.208 6.557h-1.208a.25.25 0 0 0-.25.25V20.4a.75.75 0 0 1-1.5 0v-1.208a.25.25 0 0 0-.25-.25H15.98a.75.75 0 0 1 0-1.5h1.212a.25.25 0 0 0 .25-.25v-1.211a.75.75 0 1 1 1.5 0v1.211a.25.25 0 0 0 .25.25H20.4a.75.75 0 0 1 0 1.5zM12.657 14a1 1 0 0 0-1-1H8.239A.25.25 0 0 1 8 12.808l-1.15-5a.251.251 0 0 1 .239-.308H20.28a.5.5 0 0 1 .474.658l-.749 2.248a1 1 0 1 0 1.9.633l1-3A1.927 1.927 0 0 0 21.072 5.5H6.514a.249.249 0 0 1-.243-.194l-.878-3.819A1.922 1.922 0 0 0 3.515 0H1a1 1 0 0 0 0 2l2.24-.055a.252.252 0 0 1 .25.194l3.357 14.6A.248.248 0 0 1 6.74 17a2.25 2.25 0 1 0 2.286-.1.259.259 0 0 1-.126-.165L8.57 15.3a.25.25 0 0 1 .193-.3.285.285 0 0 1 .051 0h2.843a1 1 0 0 0 1-1z" class="cls-1" data-name="Path 1889"/>
</svg>
