<svg xmlns="http://www.w3.org/2000/svg" width="30" height="24" viewBox="0 0 30 24">
    <defs>
        <style>
            .cls-1{fill:#00489c}
        </style>
    </defs>
    <g id="streamline-icon-navigation-menu_24x24" data-name="streamline-icon-navigation-menu@24x24" transform="translate(-.5 -2.5)">
        <path id="Path_1896" d="M1.8 2.5h27.4a1.285 1.285 0 0 1 1.3 1.263v1.263a1.285 1.285 0 0 1-1.3 1.263H1.8A1.285 1.285 0 0 1 .5 5.026V3.763A1.285 1.285 0 0 1 1.8 2.5zm0 10.105h27.4a1.285 1.285 0 0 1 1.3 1.263v1.263a1.285 1.285 0 0 1-1.3 1.263H1.8a1.285 1.285 0 0 1-1.3-1.262v-1.264a1.285 1.285 0 0 1 1.3-1.263zm0 10.105h27.4a1.285 1.285 0 0 1 1.3 1.263v1.263a1.285 1.285 0 0 1-1.3 1.264H1.8a1.285 1.285 0 0 1-1.3-1.263v-1.263a1.285 1.285 0 0 1 1.3-1.263z" class="cls-1" data-name="Path 1896"/>
    </g>
</svg>
