<svg xmlns="http://www.w3.org/2000/svg" width="16" height="16" viewBox="0 0 16 16">
    <defs>
        <style>
            .cls-1{fill:#00489c}
        </style>
    </defs>
    <path id="Галочка" d="M12.494 4.162a.833.833 0 0 0-1.165.177L7.177 9.974 4.52 7.849a.833.833 0 1 0-1.069 1.278l.029.023 3.333 2.667a.822.822 0 0 0 .52.183.837.837 0 0 0 .667-.337l4.667-6.333a.833.833 0 0 0-.167-1.165zM14.667 0H1.333A1.333 1.333 0 0 0 0 1.333v13.334A1.333 1.333 0 0 0 1.333 16h13.334A1.333 1.333 0 0 0 16 14.667V1.333A1.333 1.333 0 0 0 14.667 0zm0 14.5a.167.167 0 0 1-.167.167h-13a.166.166 0 0 1-.167-.165V1.5a.166.166 0 0 1 .167-.167h13a.167.167 0 0 1 .167.167z" class="cls-1"/>
</svg>
