<svg xmlns="http://www.w3.org/2000/svg" width="12" height="15.998" viewBox="0 0 12 15.998">
    <defs>
        <style>
            .cls-1{fill:#fff}
        </style>
    </defs>
    <g id="locate" transform="translate(-808.01 -4649.988)">
        <path id="pin_sharp_circle" d="M814.01 4649.988a5.81 5.81 0 0 0-6 5.6c0 3.093 6 10.4 6 10.4s6-7.307 6-10.4a5.81 5.81 0 0 0-6-5.6zm0 13.6s-4.286-5.6-4.286-8a4.3 4.3 0 0 1 8.571 0c.005 2.399-4.285 7.999-4.285 7.999zm1.714-7.825a1.718 1.718 0 1 1-1.714-1.6 1.66 1.66 0 0 1 1.714 1.599z" class="cls-1"/>
    </g>
</svg>
