<svg xmlns="http://www.w3.org/2000/svg" width="24" height="19" viewBox="0 0 24 19">
  <path id="Path_1899" data-name="Path 1899" d="M11.114,16.535a1.118,1.118,0,0,0,1.768,0l9.686-11.5a.674.674,0,0,0,0-.84.475.475,0,0,0-.282-.169A1.665,1.665,0,0,0,22,4H2a1.688,1.688,0,0,0-.289.025.586.586,0,0,0-.423.673.638.638,0,0,0,.142.335ZM23.888,6.175a.161.161,0,0,0-.2.046l-6.2,7.362a.34.34,0,0,0,0,.42l5.043,5.989a1.011,1.011,0,0,1,.019,1.259.669.669,0,0,1-1.06.023l-.018-.021-5.043-5.989a.223.223,0,0,0-.354,0h0l-2.129,2.528a2.455,2.455,0,0,1-3.888,0L7.927,15.267a.225.225,0,0,0-.354,0L2.53,21.256a.669.669,0,0,1-1.06-.023A1.015,1.015,0,0,1,1.47,20l5.043-5.989a.34.34,0,0,0,0-.42L.313,6.224a.161.161,0,0,0-.2-.046.22.22,0,0,0-.112.2v14.25A2.211,2.211,0,0,0,2,23H22a2.211,2.211,0,0,0,2-2.375V6.375A.219.219,0,0,0,23.888,6.175Z" transform="translate(0 -4)" fill="#00489c"/>
</svg>
