<svg xmlns="http://www.w3.org/2000/svg" id="mastercard-2_1_" width="49.926" height="38.842" data-name="mastercard-2 (1)" viewBox="0 0 49.926 38.842">
    <defs>
        <style>
            .cls-1{fill:#fff}.cls-2{fill:#f79410}.cls-3{fill:#ff5f00}.cls-4{fill:#eb001b}.cls-5{fill:#f79e1b}
        </style>
    </defs>
    <path id="Path_53" d="M149.911 1322.536v.1H150a.1.1 0 0 0 .05-.013.045.045 0 0 0 .019-.038.043.043 0 0 0-.019-.037.09.09 0 0 0-.05-.013h-.093zm.094-.071a.173.173 0 0 1 .112.032.107.107 0 0 1 .039.088.1.1 0 0 1-.031.078.154.154 0 0 1-.089.037l.125.142h-.1l-.115-.141h-.037v.141h-.08v-.378h.175zm-.025.508a.3.3 0 0 0 .123-.025.324.324 0 0 0 .1-.068.316.316 0 0 0 .068-.1.317.317 0 0 0-.167-.415.317.317 0 0 0-.123-.023.331.331 0 0 0-.125.023.317.317 0 0 0-.1.068.322.322 0 0 0-.067.349.3.3 0 0 0 .067.1.317.317 0 0 0 .1.068.309.309 0 0 0 .125.025m0-.724a.418.418 0 0 1 .293.12.4.4 0 0 1 .088.445.423.423 0 0 1-.088.13.451.451 0 0 1-.132.087.407.407 0 0 1-.162.032.414.414 0 0 1-.164-.032.428.428 0 0 1-.133-.087.423.423 0 0 1-.087-.134.4.4 0 0 1 .088-.445.393.393 0 0 1 .133-.087.414.414 0 0 1 .164-.032m-38.22-1.454a1.24 1.24 0 1 1 1.243 1.312 1.229 1.229 0 0 1-1.243-1.312m3.317 0v-2.049h-.891v.5a1.553 1.553 0 0 0-1.294-.6 2.154 2.154 0 0 0 0 4.3 1.554 1.554 0 0 0 1.294-.6v.5h.89v-2.05zm30.1 0a1.241 1.241 0 1 1 1.243 1.312 1.23 1.23 0 0 1-1.243-1.312m3.318 0v-3.694h-.896v2.144a1.553 1.553 0 0 0-1.294-.6 2.154 2.154 0 0 0 0 4.3 1.553 1.553 0 0 0 1.294-.6v.5h.892zm-22.361-1.354a1.017 1.017 0 0 1 1.037.994h-2.126a1.055 1.055 0 0 1 1.089-.994m.018-.8a2.153 2.153 0 0 0 .06 4.3 2.488 2.488 0 0 0 1.679-.574l-.437-.66a1.953 1.953 0 0 1-1.192.428 1.138 1.138 0 0 1-1.225-1h3.042c.009-.111.018-.223.018-.342a1.965 1.965 0 0 0-1.945-2.151m10.755 2.151a1.24 1.24 0 1 1 1.243 1.312 1.229 1.229 0 0 1-1.243-1.312m3.317 0v-2.048h-.89v.5a1.554 1.554 0 0 0-1.294-.6 2.154 2.154 0 0 0 0 4.3 1.555 1.555 0 0 0 1.294-.6v.5h.891v-2.05zm-8.347 0a2.07 2.07 0 0 0 2.185 2.151 2.142 2.142 0 0 0 1.473-.488l-.428-.72a1.8 1.8 0 0 1-1.073.369 1.314 1.314 0 0 1 0-2.623 1.806 1.806 0 0 1 1.073.369l.428-.72a2.143 2.143 0 0 0-1.473-.489 2.069 2.069 0 0 0-2.186 2.151m11.484-2.151a1.209 1.209 0 0 0-1.08.6v-.5h-.881v4.1h.892v-2.3c0-.678.291-1.055.874-1.055a1.443 1.443 0 0 1 .557.1l.275-.84a1.894 1.894 0 0 0-.635-.112m-23.878.429a3.063 3.063 0 0 0-1.671-.429c-1.038 0-1.706.5-1.706 1.311 0 .668.5 1.08 1.413 1.209l.421.06c.488.069.719.2.719.429 0 .317-.324.5-.934.5a2.184 2.184 0 0 1-1.363-.428l-.419.695a2.956 2.956 0 0 0 1.774.531c1.183 0 1.869-.557 1.869-1.337 0-.72-.54-1.1-1.431-1.225l-.42-.061c-.386-.05-.695-.128-.695-.4 0-.3.291-.48.78-.48a2.642 2.642 0 0 1 1.277.351l.386-.72zm11.494-.428a1.207 1.207 0 0 0-1.079.6v-.5h-.883v4.1h.891v-2.3c0-.678.291-1.055.874-1.055a1.443 1.443 0 0 1 .557.1l.275-.84a1.894 1.894 0 0 0-.635-.112m-7.6.1h-1.457v-1.228h-.9v1.243h-.831v.814h.831v1.869c0 .95.369 1.517 1.423 1.517a2.092 2.092 0 0 0 1.114-.317l-.257-.763a1.65 1.65 0 0 1-.789.232c-.445 0-.591-.275-.591-.686v-1.851h1.457zm-13.318 4.1v-2.571a1.525 1.525 0 0 0-1.612-1.628 1.586 1.586 0 0 0-1.44.729 1.5 1.5 0 0 0-1.354-.729 1.355 1.355 0 0 0-1.2.608v-.507h-.892v4.1h.9v-2.271a.959.959 0 0 1 1-1.089c.592 0 .891.386.891 1.08v2.28h.9v-2.271a.967.967 0 0 1 1-1.089c.608 0 .9.386.9 1.08v2.28z" class="cls-1" data-name="Path 53" transform="translate(-100.975 -1284.225)"/>
    <path id="Path_54" d="M1930.15 977.819v-.6h-.156l-.181.411-.179-.411h-.156v.6h.111v-.451l.169.389h.115l.169-.39v.452h.11zm-.99 0v-.5h.2v-.1h-.51v.1h.2v.5h.11z" class="cls-2" data-name="Path 54" transform="translate(-1880.706 -952.829)"/>
    <path id="Path_55" d="M743.21 156.411h-13.5V132.15h13.5z" class="cls-3" data-name="Path 55" transform="translate(-711.497 -128.852)"/>
    <path id="Path_56" d="M19.069 15.429A15.4 15.4 0 0 1 24.962 3.3a15.429 15.429 0 1 0 0 24.261 15.4 15.4 0 0 1-5.893-12.131" class="cls-4" data-name="Path 56" transform="translate(0 .001)"/>
    <path id="Path_57" d="M1025.073 15.429a15.429 15.429 0 0 1-24.963 12.131 15.431 15.431 0 0 0 0-24.261 15.428 15.428 0 0 1 24.963 12.131" class="cls-5" data-name="Path 57" transform="translate(-975.147 .001)"/>
</svg>
