<svg xmlns="http://www.w3.org/2000/svg" width="100" height="100" viewBox="0 0 100 100">
    <defs>
        <style>
            .cls-1{fill:#fff}.cls-2{clip-path:url(#clip-path)}
        </style>
        <clipPath id="clip-path">
            <path id="path8058" d="M347.607-941.385h100v-100h-100z" class="cls-1" transform="translate(-347.607 1041.385)"/>
        </clipPath>
    </defs>
    <g id="g8054" transform="translate(-347.607 1041.384)">
        <g id="g8056" class="cls-2" transform="translate(347.607 -1041.385)">
            <g id="g8062" transform="translate(.02 .02)">
                <path id="path8064" d="M-77.134-38.594a49.488 49.488 0 0 1-49.98 49.945c-28.924 0-49.98-22.221-49.98-49.945s21.056-50.015 49.98-50.015a49.547 49.547 0 0 1 49.98 50.015m-98.566 0c0 22.987 21.433 43.679 48.585 43.679 27.011 0 48.586-20.692 48.586-43.679s-21.571-43.437-48.586-43.437c-27.152 0-48.585 20.449-48.585 43.437M-106.262-50v-1.252h-14.622V-50h5.619v15.3h3.119V-50zm-57.47 15.3h3.119v-16.553h-3.119zm40.845 0v-16.553h-1.27v11.9c-1.556-1.745-9.406-10.529-10.539-11.9h-2.432V-34.7h1.269v-13.05c1.653 1.8 8.02 8.74 9.483 10.409.957 1.034 1.568 1.8 2.219 2.6v.041zm25.293.258c-4.859-.008-8.639-3.294-8.648-8.459a8.363 8.363 0 0 1 8.713-8.662c5.166.009 8.474 3.481 8.483 8.389.007 4.141-2.745 8.742-8.548 8.732m.035-16.227c-1.793 0-5.533 1.028-5.522 7.681.008 4.653 2.715 7.737 5.687 7.742 3.679.007 5.193-4.28 5.187-7.909s-1.767-7.508-5.352-7.514m-51.141 16.23c-4.859-.008-8.639-3.294-8.649-8.459a8.364 8.364 0 0 1 8.713-8.662c5.166.009 8.474 3.481 8.483 8.389.008 4.141-2.745 8.742-8.547 8.732m.034-16.227c-1.793 0-5.533 1.028-5.521 7.681.008 4.653 2.715 7.737 5.687 7.742 3.679.007 5.192-4.28 5.186-7.909s-1.766-7.508-5.352-7.514m41.886 25.889c0-2.642-1.428-4.1-4.025-4.1h-2.406v8.37h2.393c2.529 0 4.038-1.6 4.038-4.273m-5.3-3.073h1.261c1.912 0 2.881 1.043 2.881 3.1 0 2.078-1.048 3.222-2.948 3.222h-1.194zm-3.159 6.309h-3.8v-2.636h3.378v-1.038h-3.378v-2.622h3.8v-1.038h-4.927v8.37h4.927zm-7.258-7.333h-1.171l-2.366 4.528a7.294 7.294 0 0 0-.214.437 8.76 8.76 0 0 0-.214-.437l-2.38-4.528h-1.212v8.37h1.118v-5.8-.426c.07.146.151.307.245.484l2.016 3.756h.8l2.018-3.757c.093-.176.174-.337.244-.483v6.226h1.118zm-9.4 4.193c0-2.7-1.369-4.315-3.663-4.315s-3.664 1.613-3.664 4.315 1.37 4.3 3.664 4.3 3.663-1.608 3.663-4.3m-1.145 0c0 2.1-.893 3.262-2.517 3.262s-2.5-1.159-2.5-3.262.89-3.277 2.5-3.277c1.6 0 2.517 1.194 2.517 3.277m-10.752 4.3c-2.283 0-3.646-1.6-3.646-4.287 0-2.669 1.443-4.327 3.767-4.327a3 3 0 0 1 3.024 2.023l.072.178-1.017.5-.078-.219a2.01 2.01 0 0 0-2.042-1.456c-1.632 0-2.569 1.2-2.569 3.3s.893 3.236 2.514 3.236a2.258 2.258 0 0 0 2.229-1.348l.117-.222.846.669-.082.154a3.228 3.228 0 0 1-3.136 1.8" class="cls-1" transform="translate(177.094 88.609)"/>
            </g>
        </g>
    </g>
</svg>
