<svg xmlns="http://www.w3.org/2000/svg" width="94.787" height="24.042" viewBox="0 0 94.787 24.042">
    <defs>
        <style>
            .cls-1{fill:#003087}.cls-2{fill:#009cde}.cls-3{fill:#fff}.cls-4{fill:rgba(255,255,255,.79)}
        </style>
    </defs>
    <g id="paypal_1_" data-name="paypal (1)">
        <g id="Group_101" data-name="Group 101">
            <path id="Path_60" d="M30.5-88.958c-1.113-1.269-3.126-1.813-5.7-1.813h-7.468a1.07 1.07 0 0 0-1.057.9l-3.11 19.732a.641.641 0 0 0 .146.517.641.641 0 0 0 .488.224h4.613l1.158-7.348-.036.23a1.067 1.067 0 0 1 1.053-.9h2.192c4.306 0 7.678-1.749 8.663-6.809q.044-.224.076-.438a4.778 4.778 0 0 0-1.014-4.3" class="cls-1" data-name="Path 60" transform="translate(-13.156 90.771)"/>
            <path id="Path_61" d="M225.514-66.044c-.282 1.851-1.7 1.851-3.063 1.851h-.778l.546-3.457a.43.43 0 0 1 .424-.362H223c.931 0 1.81 0 2.264.53a1.724 1.724 0 0 1 .25 1.438m-.6-4.831h-5.158a.718.718 0 0 0-.709.605l-2.084 13.225a.43.43 0 0 0 .1.346.43.43 0 0 0 .326.151h2.647a.5.5 0 0 0 .5-.423l.592-3.751a.717.717 0 0 1 .708-.605h1.632c3.4 0 5.359-1.643 5.871-4.9a3.972 3.972 0 0 0-.658-3.328 4.784 4.784 0 0 0-3.759-1.318" class="cls-2" data-name="Path 61" transform="translate(-151.698 77.246)"/>
            <path id="Path_62" d="M110.628-66.044c-.282 1.851-1.7 1.851-3.064 1.851h-.778l.546-3.457a.43.43 0 0 1 .424-.362h.357c.931 0 1.81 0 2.264.53a1.721 1.721 0 0 1 .251 1.438m-.6-4.831h-5.158a.717.717 0 0 0-.708.605l-2.085 13.225a.43.43 0 0 0 .1.346.43.43 0 0 0 .327.151h2.463a.717.717 0 0 0 .708-.605l.563-3.568a.716.716 0 0 1 .708-.605h1.632c3.4 0 5.359-1.644 5.871-4.9a3.972 3.972 0 0 0-.658-3.328 4.785 4.785 0 0 0-3.759-1.318m11.974 9.58a2.754 2.754 0 0 1-2.788 2.359 2.085 2.085 0 0 1-1.659-.667 2.1 2.1 0 0 1-.387-1.734 2.763 2.763 0 0 1 2.768-2.377 2.082 2.082 0 0 1 1.647.673 2.126 2.126 0 0 1 .419 1.746m3.444-4.808h-2.47a.43.43 0 0 0-.426.364l-.108.69-.173-.25a3.516 3.516 0 0 0-2.917-1.036 5.68 5.68 0 0 0-5.513 4.968 4.663 4.663 0 0 0 .92 3.8 3.865 3.865 0 0 0 3.11 1.256 4.729 4.729 0 0 0 3.42-1.413l-.11.686a.43.43 0 0 0 .1.346.43.43 0 0 0 .327.15h2.224a.717.717 0 0 0 .708-.605l1.335-8.455a.43.43 0 0 0-.1-.346.43.43 0 0 0-.327-.15" class="cls-3" data-name="Path 62" transform="translate(-73.601 77.246)"/>
            <path id="Path_63" d="M261.716-51.659a2.754 2.754 0 0 1-2.788 2.359 2.085 2.085 0 0 1-1.659-.667 2.1 2.1 0 0 1-.387-1.734 2.763 2.763 0 0 1 2.768-2.377 2.082 2.082 0 0 1 1.647.673 2.126 2.126 0 0 1 .419 1.746m3.442-4.808h-2.47a.43.43 0 0 0-.426.364l-.108.69-.173-.25a3.516 3.516 0 0 0-2.917-1.036 5.681 5.681 0 0 0-5.513 4.968 4.663 4.663 0 0 0 .92 3.8 3.865 3.865 0 0 0 3.11 1.256A4.73 4.73 0 0 0 261-48.093l-.11.686a.428.428 0 0 0 .1.346.428.428 0 0 0 .327.15h2.223a.718.718 0 0 0 .709-.605l1.335-8.454a.43.43 0 0 0-.1-.346.43.43 0 0 0-.327-.15" class="cls-2" data-name="Path 63" transform="translate(-176.52 67.61)"/>
            <path id="Path_64" d="M191.717-55.974h-2.483a.714.714 0 0 0-.592.315l-3.425 5.044-1.452-4.847a.718.718 0 0 0-.687-.512h-2.44a.43.43 0 0 0-.35.18.43.43 0 0 0-.057.389l2.733 8.024-2.571 3.628a.43.43 0 0 0-.031.446.43.43 0 0 0 .382.232h2.481a.718.718 0 0 0 .589-.308L192.07-55.3a.43.43 0 0 0 .028-.444.43.43 0 0 0-.381-.231" class="cls-3" data-name="Path 64" transform="translate(-126.714 67.117)"/>
            <path id="Path_65" d="M294.538-70.509l-2.118 13.467a.43.43 0 0 0 .1.346.43.43 0 0 0 .327.151h2.129a.717.717 0 0 0 .708-.605l2.088-13.226a.43.43 0 0 0-.1-.346.43.43 0 0 0-.327-.15h-2.382a.429.429 0 0 0-.425.363" class="cls-2" data-name="Path 65" transform="translate(-202.989 77.245)"/>
            <path id="Path_66" d="M30.5-88.958c-1.113-1.269-3.126-1.813-5.7-1.813h-7.468a1.07 1.07 0 0 0-1.057.9l-3.11 19.732a.641.641 0 0 0 .146.517.641.641 0 0 0 .488.224h4.613l1.158-7.348-.036.23a1.067 1.067 0 0 1 1.053-.9h2.192c4.306 0 7.678-1.749 8.663-6.809q.044-.224.076-.438a4.778 4.778 0 0 0-1.014-4.3" class="cls-1" data-name="Path 66" transform="translate(-13.156 90.771)"/>
            <path id="Path_67" d="M20.812-84.636a.936.936 0 0 1 .924-.789h5.858a12.315 12.315 0 0 1 1.932.14 8.115 8.115 0 0 1 .958.214 5.292 5.292 0 0 1 1.031.411 4.775 4.775 0 0 0-1.013-4.3c-1.114-1.268-3.126-1.812-5.7-1.812h-7.473a1.07 1.07 0 0 0-1.056.9l-3.111 19.73a.641.641 0 0 0 .146.517.641.641 0 0 0 .487.225h4.613l1.158-7.349z" class="cls-3" data-name="Path 67" transform="translate(-13.154 90.769)"/>
            <path id="Path_68" d="M41.977-71.7q-.034.219-.076.438c-.985 5.059-4.357 6.809-8.663 6.809h-2.193a1.065 1.065 0 0 0-1.052.9L28.87-56.43l-.319 2.019a.561.561 0 0 0 .128.452.561.561 0 0 0 .427.2h3.888a.936.936 0 0 0 .924-.789l.038-.2.733-4.645.047-.257a.936.936 0 0 1 .924-.789h.582c3.767 0 6.716-1.53 7.578-5.956.359-1.849.173-3.394-.778-4.478a3.713 3.713 0 0 0-1.065-.821" class="cls-2" data-name="Path 68" transform="translate(-23.616 77.804)"/>
            <path id="Path_69" d="M44.02-73.729q-.225-.067-.465-.12a8.126 8.126 0 0 0-.493-.093 12.078 12.078 0 0 0-1.933-.142h-5.856a.934.934 0 0 0-.924.79L33.1-65.4l-.036.229a1.065 1.065 0 0 1 1.052-.9h2.193c4.306 0 7.678-1.749 8.663-6.809.029-.15.054-.295.076-.438a5.319 5.319 0 0 0-.81-.342 6.374 6.374 0 0 0-.221-.069" class="cls-4" data-name="Path 69" transform="translate(-26.691 79.427)"/>
        </g>
    </g>
</svg>
