<svg xmlns="http://www.w3.org/2000/svg" width="16" height="16" viewBox="0 0 16 16">
    <defs>
        <style>
            .cls-1{fill:#fff;stroke:#707070;opacity:.38}.cls-2{opacity:.6;clip-path:url(#clip-path)}.cls-3{fill:#0061c5}
        </style>
        <clipPath id="clip-path">
            <circle id="Ellipse_26" cx="8" cy="8" r="8" class="cls-1" data-name="Ellipse 26" transform="translate(347 88)"/>
        </clipPath>
    </defs>
    <g id="Phone" class="cls-2" transform="translate(-347 -88)">
        <path id="Path_44" d="M8 .09a8.029 8.029 0 0 0-8 8 7.921 7.921 0 0 0 1.427 4.546l-.9 2.686a.339.339 0 0 0 .42.43l2.8-.893a7.967 7.967 0 0 0 11.029-2.54A8.1 8.1 0 0 0 16 8.087 8.029 8.029 0 0 0 8 .09zm4.8 11.227a2.6 2.6 0 0 1-2.333 1.4 7.112 7.112 0 0 1-2.3-.671A9.354 9.354 0 0 1 4.2 8.584c-1.273-1.7-1.333-3.29-.107-4.606a1.439 1.439 0 0 1 1.24-.378 1.028 1.028 0 0 1 .807.584l.253.618.42 1.014a.744.744 0 0 1 0 .671 3.444 3.444 0 0 1-.667.92A8.32 8.32 0 0 0 7.34 8.853a6.031 6.031 0 0 0 1.82 1.094c.187-.242.553-.671.667-.853a.664.664 0 0 1 .893-.242c.253.094 1.673.792 1.673.792a.953.953 0 0 1 .453.329 1.351 1.351 0 0 1-.046 1.344z" class="cls-3" data-name="Path 44" transform="translate(347 87.91)"/>
    </g>
</svg>
