<svg xmlns="http://www.w3.org/2000/svg" width="21.274" height="21.275" viewBox="0 0 21.274 21.275">
    <defs>
        <style>
            .cls-1{fill:#00489c}
        </style>
    </defs>
    <path id="Shape" d="M10.637 21.275a10.638 10.638 0 1 1 5.236-19.9L14.3 3.216a8.188 8.188 0 0 0-3.66-.851 8.273 8.273 0 1 0 8.274 8.273h2.363a10.637 10.637 0 0 1-10.64 10.637zm-.355-5.91a1.187 1.187 0 0 1-.837-.349L6.253 11.8a1.182 1.182 0 1 1 1.677-1.661l2.31 2.325 6.61-7.344a1.182 1.182 0 1 1 1.757 1.58l-7.446 8.274a1.187 1.187 0 0 1-.85.391z" class="cls-1"/>
</svg>
