<?xml version="1.0" encoding="UTF-8" standalone="no"?>
<svg
   xmlns:dc="http://purl.org/dc/elements/1.1/"
   xmlns:cc="http://creativecommons.org/ns#"
   xmlns:rdf="http://www.w3.org/1999/02/22-rdf-syntax-ns#"
   xmlns:svg="http://www.w3.org/2000/svg"
   xmlns="http://www.w3.org/2000/svg"
   xmlns:sodipodi="http://sodipodi.sourceforge.net/DTD/sodipodi-0.dtd"
   xmlns:inkscape="http://www.inkscape.org/namespaces/inkscape"
   width="33.930332"
   height="15.80858"
   viewBox="0 0 33.930333 15.80858"
   version="1.1"
   id="svg833"
   sodipodi:docname="Star.svg"
   inkscape:version="0.92.3 (2405546, 2018-03-11)">
  <metadata
     id="metadata837">
    <rdf:RDF>
      <cc:Work
         rdf:about="">
        <dc:format>image/svg+xml</dc:format>
        <dc:type
           rdf:resource="http://purl.org/dc/dcmitype/StillImage" />
        <dc:title></dc:title>
      </cc:Work>
    </rdf:RDF>
  </metadata>
  <sodipodi:namedview
     pagecolor="#ffffff"
     bordercolor="#666666"
     borderopacity="1"
     objecttolerance="10"
     gridtolerance="10"
     guidetolerance="10"
     inkscape:pageopacity="0"
     inkscape:pageshadow="2"
     inkscape:window-width="1366"
     inkscape:window-height="706"
     id="namedview835"
     showgrid="false"
     fit-margin-top="0"
     fit-margin-left="0"
     fit-margin-right="0"
     fit-margin-bottom="0"
     inkscape:zoom="17.023839"
     inkscape:cx="20.768651"
     inkscape:cy="3.6077475"
     inkscape:window-x="-8"
     inkscape:window-y="-8"
     inkscape:window-maximized="1"
     inkscape:current-layer="svg833" />
  <defs
     id="defs829">
    <style
       id="style827">
            .cls-1{fill:#bfc4ce}
        </style>
  </defs>
  <g
     id="Star"
     transform="translate(17.969243,-0.05239146)"
     style="fill:#00489c;fill-opacity:1">
    <path
       id="Shape"
       d="M 15.948,6 A 0.289,0.289 0 0 0 15.717,5.8 L 10.548,5.021 8.237,0.165 a 0.281,0.281 0 0 0 -0.512,0 L 5.413,5.023 0.245,5.8 A 0.289,0.289 0 0 0 0.014,6 0.3,0.3 0 0 0 0.086,6.3 l 3.74,3.781 -0.883,5.339 a 0.3,0.3 0 0 0 0.113,0.29 0.275,0.275 0 0 0 0.3,0.023 l 4.623,-2.52 4.623,2.52 a 0.277,0.277 0 0 0 0.3,-0.023 0.3,0.3 0 0 0 0.113,-0.29 l -0.883,-5.338 3.74,-3.781 A 0.3,0.3 0 0 0 15.948,6 Z"
       class="cls-1"
       transform="translate(0,0.094)"
       inkscape:connector-curvature="0"
       style="fill:#00489c;fill-opacity:1" />
  </g>
  <g
     id="Star-5"
     transform="translate(-1.9659441e-4,-0.0938663)">
    <path
       inkscape:connector-curvature="0"
       id="Shape-3"
       d="M 15.948,6 A 0.289,0.289 0 0 0 15.717,5.8 L 10.548,5.021 8.237,0.165 a 0.281,0.281 0 0 0 -0.512,0 L 5.413,5.023 0.245,5.8 A 0.289,0.289 0 0 0 0.014,6 0.3,0.3 0 0 0 0.086,6.3 l 3.74,3.781 -0.883,5.339 a 0.3,0.3 0 0 0 0.113,0.29 0.275,0.275 0 0 0 0.3,0.023 l 4.623,-2.52 4.623,2.52 a 0.277,0.277 0 0 0 0.3,-0.023 0.3,0.3 0 0 0 0.113,-0.29 l -0.883,-5.338 3.74,-3.781 A 0.3,0.3 0 0 0 15.948,6 Z"
       class="cls-1"
       transform="translate(0,0.094)"
       style="fill:#bfc4ce" />
  </g>
</svg>
