<svg xmlns="http://www.w3.org/2000/svg" width="49.939" height="47.847" viewBox="0 0 49.939 47.847">
    <defs>
        <style>
            .cls-1{fill:#1a47b0}
        </style>
    </defs>
    <g id="Star">
        <path id="Shape" d="M11.748 47.847a3.59 3.59 0 0 1-3.524-4.191l2.065-12.044a1.579 1.579 0 0 0-.456-1.4l-8.749-8.528a3.581 3.581 0 0 1 1.985-6.107l12.091-1.759a1.581 1.581 0 0 0 1.192-.865L21.758 2a3.582 3.582 0 0 1 6.423 0l5.406 10.957a1.577 1.577 0 0 0 1.19.865l12.093 1.753a3.581 3.581 0 0 1 1.985 6.108l-8.749 8.529a1.585 1.585 0 0 0-.456 1.4l2.066 12.042a3.577 3.577 0 0 1-5.2 3.775l-10.81-5.685a1.583 1.583 0 0 0-1.472 0L13.42 47.43a3.6 3.6 0 0 1-1.672.417zm13.222-8.284a3.594 3.594 0 0 1 1.667.411l10.815 5.686a1.589 1.589 0 0 0 .741.186 1.571 1.571 0 0 0 .924-.306 1.551 1.551 0 0 0 .629-1.547l-2.065-12.042a3.576 3.576 0 0 1 1.029-3.171l8.749-8.528a1.583 1.583 0 0 0-.876-2.7L34.491 15.8a3.573 3.573 0 0 1-2.7-1.958L26.388 2.881a1.582 1.582 0 0 0-2.837 0l-5.407 10.957a3.577 3.577 0 0 1-2.7 1.958L3.356 17.554a1.583 1.583 0 0 0-.877 2.7l8.751 8.529a3.581 3.581 0 0 1 1.03 3.17l-2.06 12.04a1.554 1.554 0 0 0 .628 1.547 1.571 1.571 0 0 0 .925.306 1.6 1.6 0 0 0 .742-.186L23.3 39.975a3.6 3.6 0 0 1 1.67-.412z" class="cls-1"/>
    </g>
</svg>
