<svg xmlns="http://www.w3.org/2000/svg" width="30" height="30" viewBox="0 0 30 30">
    <defs>
        <style>
            .cls-1{fill:#fff}
        </style>
    </defs>
    <path id="Учёба" d="M19.49 16.623l-3.42 1.139a1.44 1.44 0 0 1-.889 0l-3.421-1.139a.616.616 0 0 0-.562.085.624.624 0 0 0-.26.507v1.364a1.441 1.441 0 0 0 .96 1.356l2.977 1.051a2.27 2.27 0 0 0 1.5 0l2.98-1.052a1.441 1.441 0 0 0 .959-1.355v-1.364a.624.624 0 0 0-.26-.507.614.614 0 0 0-.564-.085zm4.072-3.444a.625.625 0 0 0-.428-.592l-7.312-2.437a.628.628 0 0 0-.395 0l-7.312 2.436a1.082 1.082 0 0 0-.74 1.026v3.624a.938.938 0 0 0 1.875 0v-2.653a.312.312 0 0 1 .315-.312.316.316 0 0 1 .1.015l5.766 1.922a.611.611 0 0 0 .395 0l7.312-2.437a.625.625 0 0 0 .424-.593zM2.5 15A12.5 12.5 0 0 1 22.334 4.875a.625.625 0 0 1 .139.872.6.6 0 0 1-.064.075l-1.418 1.42a1.25 1.25 0 0 0 .884 2.132h5a1.25 1.25 0 0 0 1.25-1.25v-5a1.25 1.25 0 0 0-2.134-.884l-.9.906a.625.625 0 0 1-.829.049A15 15 0 0 0 0 15a1.25 1.25 0 0 0 2.5 0zm26.25-1.25A1.25 1.25 0 0 0 27.5 15 12.5 12.5 0 0 1 7.666 25.121a.625.625 0 0 1-.139-.872.6.6 0 0 1 .064-.075l1.417-1.419a1.25 1.25 0 0 0-.884-2.133h-5a1.25 1.25 0 0 0-1.25 1.25v5a1.25 1.25 0 0 0 2.134.884l.906-.9a.625.625 0 0 1 .827-.049A15 15 0 0 0 30 15a1.25 1.25 0 0 0-1.25-1.252z" class="cls-1" transform="translate(0 .002)"/>
</svg>
