<svg xmlns="http://www.w3.org/2000/svg" width="76.774" height="24.907" viewBox="0 0 76.774 24.907">
    <defs>
        <style>
            .cls-1{fill:#fff}.cls-2{fill:#e6a540}
        </style>
    </defs>
    <g id="visa_1_" data-name="visa (1)">
        <g id="Group_100" data-name="Group 100">
            <path id="Path_58" d="M44.508 76.011h-6.264l3.915-24.062h6.265zM32.973 51.949L27 68.5l-.707-3.564-2.106-10.821s-.255-2.167-2.972-2.167h-9.873l-.116.407a23.436 23.436 0 0 1 6.553 2.75l5.443 20.9h6.527l9.967-24.063zm49.275 24.062H88l-5.015-24.063h-5.036a2.879 2.879 0 0 0-2.892 1.793l-9.343 22.27h6.53l1.306-3.574h7.964zM75.354 67.5l3.292-9 1.852 9zM66.2 57.735l.894-5.167a18.082 18.082 0 0 0-5.634-1.049c-3.109 0-10.491 1.359-10.491 7.966 0 6.216 8.665 6.294 8.665 9.559s-7.772 2.68-10.337.621l-.931 5.4a17.556 17.556 0 0 0 7.071 1.359c4.275 0 10.724-2.214 10.724-8.238 0-6.256-8.743-6.839-8.743-9.559s6.1-2.371 8.783-.894z" class="cls-1" data-name="Path 58" transform="translate(-11.226 -51.519)"/>
        </g>
        <path id="Path_59" d="M26.3 65.173l-2.113-10.82s-.255-2.167-2.972-2.167h-9.873l-.116.407a24.272 24.272 0 0 1 9.3 4.668 18.763 18.763 0 0 1 5.774 7.912z" class="cls-2" data-name="Path 59" transform="translate(-11.226 -51.757)"/>
    </g>
</svg>
