<?xml version="1.0" encoding="UTF-8"?>
<!-- Created with Inkscape (http://www.inkscape.org/) -->
<svg width="28.192mm" height="28.196mm" version="1.1" viewBox="0 0 28.192 28.196" xmlns="http://www.w3.org/2000/svg" xmlns:cc="http://creativecommons.org/ns#" xmlns:dc="http://purl.org/dc/elements/1.1/" xmlns:rdf="http://www.w3.org/1999/02/22-rdf-syntax-ns#">
 <defs>
  <style>.cls-1{opacity:.9}.cls-2{fill:#fff;stroke-linecap:round;stroke-dasharray:1 10}.cls-3{fill:url(#linear-gradient)}.cls-4{font-size:55px;font-family:Lato-Bold,Lato;font-weight:700;letter-spacing:-.021em}.cls-5{fill:#595f6f;font-size:20px;font-family:Circe-Regular,Circe;letter-spacing:.01em}.cls-6,.cls-7{stroke:none}.cls-7{fill:#00489c}</style>
  <linearGradient id="linear-gradient" x1="-1.4489" x2="85.231" y1="42.615" y2="36.99" gradientTransform="scale(.83082 1.2036)" gradientUnits="userSpaceOnUse">
   <stop stop-color="#fff" stop-opacity=".902" offset="0"/>
   <stop stop-color="#fff" offset="1"/>
  </linearGradient>
 </defs>
 <metadata>
  <rdf:RDF>
   <cc:Work rdf:about="">
    <dc:format>image/svg+xml</dc:format>
    <dc:type rdf:resource="http://purl.org/dc/dcmitype/StillImage"/>
    <dc:title/>
   </cc:Work>
  </rdf:RDF>
 </metadata>
 <g transform="translate(-.021197 .051003)">
  <g transform="matrix(.26458 0 0 .26458 .026041 -.046117)" data-name="Group 107">
   <g class="cls-1" opacity=".9" data-name="Group 106">
    <g class="cls-2" fill="#fff" stroke-dasharray="1, 10" stroke-linecap="round" data-name="Path 1893">
     <path class="cls-6" transform="rotate(24,53.235,53.23)" d="M 53.268,0 A 53.268,53.268 0 1 1 0,53.268 53.179,53.179 0 0 1 53.268,0 Z"/>
     <path class="cls-7" transform="rotate(24,53.235,53.23)" d="m53.268 0h0.32l0.01 1e-3h0.021a50.075 50.075 0 0 1 0.08 0h0.028l0.023 1e-3h4e-3l0.52 7e-3a2.0004 2.0004 0 0 1-0.08 4 50.497 50.497 0 0 0-0.925-9e-3 2 2 0 0 1-1.77-1.068 2 2 0 0 1-1.691 1.188c-0.307 0.02-0.617 0.045-0.923 0.072a2.0006 2.0006 0 0 1-0.299-3.99h0.014l0.023-2e-3 0.01-1e-3 0.018-2e-3h0.01l0.026-3e-3h5e-3l0.025-2e-3h4e-3c0.258-0.022 0.517-0.042 0.776-0.06h3e-3l0.03-3e-3a2.001 2.001 0 0 1 1.908 1.063 2 2 0 0 1 1.83-1.192zm10.512 1.081c0.136 0 0.273 0.014 0.411 0.043l0.306 0.065h1e-3l0.028 6e-3h3e-3l0.028 7e-3h2e-3l0.06 0.013 4e-3 1e-3 0.024 5e-3 0.028 7e-3 0.03 6e-3 8e-3 2e-3 0.025 5e-3 8e-3 2e-3 0.023 5e-3 0.012 3e-3 0.016 3e-3 0.014 3e-3 0.014 4e-3 0.014 3e-3 0.013 3e-3 0.015 3e-3 0.011 2e-3 0.034 8e-3 8e-3 2e-3 0.018 4e-3 0.01 2e-3 0.016 4e-3 0.01 2e-3 0.019 4e-3 7e-3 2e-3 0.067 0.015h4e-3l0.02 6e-3h6e-3l0.021 6e-3h6e-3l0.021 6e-3h2e-3l0.023 6e-3a2 2 0 0 1-0.894 3.898 48.886 48.886 0 0 0-0.903-0.198 2 2 0 0 1 0.407-3.958zm10.067 3.223c0.268 0 0.54 0.054 0.802 0.169 0.19 0.083 0.38 0.168 0.57 0.253l1e-3 1e-3 0.026 0.012 3e-3 1e-3 0.026 0.012h2e-3l0.027 0.013 0.01 4e-3 0.03 0.014 0.027 0.012 4e-3 2e-3 0.191 0.088a2 2 0 0 1-1.678 3.63 50.11 50.11 0 0 0-0.844-0.379 2 2 0 0 1 0.803-3.832zm9.198 5.207c0.4 0 0.805 0.12 1.157 0.37 0.274 0.195 0.546 0.393 0.816 0.593a2.0001 2.0001 0 0 1-2.387 3.21 49.131 49.131 0 0 0-0.748-0.544 2 2 0 0 1 1.162-3.629zm7.924 6.99c0.537 0 1.073 0.215 1.467 0.64 0.228 0.247 0.454 0.497 0.678 0.75a2 2 0 0 1-2.994 2.652 49.6 49.6 0 0 0-0.621-0.686 2 2 0 0 1 1.47-3.356zm6.326 8.466c0.679 0 1.34 0.345 1.715 0.97 0.054 0.088 0.108 0.179 0.16 0.268l1e-3 2e-3 9e-3 0.014 7e-3 0.012 6e-3 0.01 0.01 0.017 4e-3 8e-3 0.015 0.025 0.013 0.023 2e-3 2e-3 0.219 0.377 0.015 0.026 1e-3 3e-3 0.013 0.022 3e-3 5e-3 0.011 0.02 5e-3 7e-3 6e-3 0.012 0.01 0.016a2.0001 2.0001 0 0 1-3.473 1.985c-0.153-0.266-0.31-0.534-0.467-0.798a2 2 0 0 1 1.715-3.026zm4.457 9.581a2 2 0 0 1 1.891 1.35l0.07 0.206 2e-3 3e-3 8e-3 0.024 2e-3 8e-3 7e-3 0.02 3e-3 0.01 7e-3 0.018 3e-3 0.01 6e-3 0.018 4e-3 0.01 6e-3 0.018 3e-3 0.011 7e-3 0.021 3e-3 8e-3 0.01 0.027c0 5e-3 2e-3 7e-3 3e-3 0.012l6e-3 0.016 4e-3 0.013 5e-3 0.015 5e-3 0.014 4e-3 0.015 5e-3 0.013 5e-3 0.015 4e-3 0.013 6e-3 0.016 3e-3 0.012 6e-3 0.018 4e-3 0.01 8e-3 0.024a2.555 2.555 0 0 1 0.03 0.092v2e-3l0.01 0.027v3e-3l0.01 0.027v2e-3l0.058 0.177a2 2 0 1 1-3.806 1.23 49.13 49.13 0 0 0-0.293-0.876 2 2 0 0 1 1.891-2.652zm2.389 10.294a2 2 0 0 1 1.99 1.812v4e-3c0 9e-3 2e-3 0.017 3e-3 0.025v8e-3l3e-3 0.02 2e-3 0.012 2e-3 0.017 1e-3 0.014 2e-3 0.013 2e-3 0.018 1e-3 7e-3c0.032 0.266 0.063 0.533 0.09 0.801a2 2 0 0 1-3.977 0.416 49.63 49.63 0 0 0-0.106-0.919 2 2 0 0 1 1.987-2.248zm0.228 10.572a2 2 0 0 1 1.996 2.156l-3e-3 0.045-1e-3 0.013-1e-3 0.012-2e-3 0.025v7e-3l-3e-3 0.024v4e-3c-0.024 0.29-0.05 0.58-0.079 0.87a2 2 0 0 1-3.98-0.394c0.03-0.305 0.057-0.615 0.082-0.921a2 2 0 0 1 1.991-1.84zm-1.923 10.39a2.001 2.001 0 0 1 1.92 2.567c-0.095 0.32-0.192 0.639-0.293 0.956a2 2 0 0 1-3.814-1.204c0.092-0.293 0.183-0.59 0.27-0.885a2 2 0 0 1 1.917-1.434zm-4.023 9.769a2 2 0 0 1 1.761 2.945l-0.144 0.265a54.037 54.037 0 0 1-0.05 0.09l-7e-3 0.014-5e-3 9e-3 -0.012 0.02-5e-3 0.011-7e-3 0.013-7e-3 0.012-0.01 0.019-6e-3 0.01-7e-3 0.013-0.01 0.018-7e-3 0.013-6e-3 0.01-9e-3 0.016-8e-3 0.015-7e-3 0.013-6e-3 0.01-0.012 0.023-4e-3 7e-3 -9e-3 0.015-2e-3 5e-3 -0.017 0.03-1e-3 2e-3 -0.13 0.231a2.0001 2.0001 0 0 1-3.482-1.969c0.15-0.267 0.301-0.54 0.447-0.81a2 2 0 0 1 1.762-1.05zm-5.95 8.736a2 2 0 0 1 1.53 3.287l-0.014 0.015-1e-3 2e-3a35.024 35.024 0 0 1-0.043 0.051l-7e-3 8e-3 -0.016 0.019-6e-3 6e-3 -0.016 0.02-0.02 0.023-2e-3 2e-3c-0.175 0.206-0.352 0.411-0.53 0.614a1.995 1.995 0 0 1-1.505 0.682 2 2 0 0 1-1.503-3.318c0.202-0.23 0.405-0.467 0.603-0.701 0.396-0.47 0.96-0.71 1.53-0.71zm-7.611 7.338a2 2 0 0 1 1.235 3.574 53.45 53.45 0 0 1-0.175 0.137l-0.02 0.015-0.01 8e-3 -9e-3 6e-3c-0.193 0.15-0.388 0.3-0.584 0.447a1.997 1.997 0 0 1-2.796-0.397 2 2 0 0 1 0.393-2.8c0.245-0.185 0.492-0.375 0.733-0.564a1.99 1.99 0 0 1 1.233-0.426zm-8.946 5.628a2 2 0 0 1 0.89 3.792 51.55 51.55 0 0 1-0.098 0.049h-2e-3l-0.029 0.015a4.653 4.653 0 0 0-0.038 0.018l-0.036 0.018-0.025 0.012c-1e-3 0 1e-3 0 0 0l-0.028 0.014c-0.205 0.1-0.411 0.198-0.618 0.296l-3e-3 1e-3 -0.025 0.012-4e-3 1e-3a2 2 0 0 1-1.7-3.62c0.278-0.13 0.558-0.266 0.833-0.401 0.284-0.14 0.586-0.207 0.883-0.207zm-9.906 3.666a2 2 0 0 1 0.5 3.937c-0.327 0.083-0.654 0.164-0.982 0.241a2.0002 2.0002 0 0 1-0.912-3.895c0.299-0.07 0.6-0.144 0.898-0.22 0.166-0.043 0.332-0.063 0.496-0.063zm-10.454 1.545a2 2 0 0 1 0.086 3.999c-0.249 0.01-0.498 0.02-0.747 0.027h-0.027l-0.01 1e-3h-0.022l-0.018 1e-3h-6e-3a55.931 55.931 0 0 1-0.221 6e-3 2.0002 2.0002 0 0 1-0.05-4 50.115 50.115 0 0 0 1.015-0.034zm-11.508-0.776c0.118 0 0.238 0.01 0.36 0.032 0.3 0.055 0.607 0.108 0.91 0.157a2 2 0 0 1-0.637 3.949 46.439 46.439 0 0 1-0.64-0.108l-0.017-3e-3h-5e-3l-0.04-8e-3 -0.016-2e-3 -0.012-3e-3 -0.023-4e-3 -0.012-2e-3 -0.014-2e-3 -0.02-4e-3 -0.013-2e-3a5.565 5.565 0 0 1-0.027-5e-3l-0.023-4e-3 -0.012-2e-3 -0.015-3e-3 -0.012-2e-3 -0.02-4e-3 -0.015-2e-3 -0.013-3e-3 -0.014-2e-3 -0.013-3e-3 -0.015-2e-3a2 2 0 0 1 0.358-3.968zm-10.14-2.955c0.251 0 0.507 0.047 0.755 0.148 0.284 0.116 0.573 0.231 0.859 0.342a2 2 0 0 1-1.442 3.73 53.246 53.246 0 0 1-0.142-0.054l-7e-3 -3e-3 -0.02-7e-3 -0.015-7e-3 -0.012-4e-3 -0.015-6e-3h-2e-3a53.094 53.094 0 0 1-0.467-0.186l-7e-3 -3e-3 -0.017-7e-3a50.285 50.285 0 0 1-0.019-7e-3l-9e-3 -4e-3a59.593 59.593 0 0 1-0.02-9e-3l-4e-3 -1e-3a52.435 52.435 0 0 1-0.173-0.07 2 2 0 0 1 0.757-3.852zm-9.318-4.985c0.385 0 0.775 0.11 1.118 0.343 0.254 0.172 0.514 0.344 0.771 0.511a2 2 0 1 1-2.178 3.355c-0.28-0.182-0.557-0.366-0.833-0.552a2 2 0 0 1 1.122-3.657zm-8.105-6.789c0.522 0 1.043 0.203 1.435 0.607 0.214 0.22 0.433 0.442 0.65 0.658a2 2 0 0 1-2.814 2.842l-0.168-0.167-2e-3 -3e-3a44.446 44.446 0 0 1-0.038-0.038l-0.022-0.022-0.012-0.011a8.771 8.771 0 0 0-8e-3 -9e-3l-0.013-0.013a4.176 4.176 0 0 1-8e-3 -8e-3l-0.06-0.06a0.954 0.954 0 0 1-0.024-0.024l-2e-3 -3e-3a50.089 50.089 0 0 1-0.02-0.02l-0.024-0.024a44.23 44.23 0 0 1-0.042-0.042l-1e-3 -2e-3a57.178 57.178 0 0 1-0.043-0.043c-1e-3 -1e-3 0 0 0 0l-0.044-0.045-0.021-0.022-0.022-0.022-0.02-0.021a1.726 1.726 0 0 1-5e-3 -4e-3l-0.018-0.02-4e-3 -3e-3 -0.023-0.023-0.016-0.017a10.505 10.505 0 0 0-0.047-0.048 2 2 0 0 1 1.436-3.393zm-6.55-8.298c0.663 0 1.31 0.329 1.691 0.93 0.165 0.259 0.334 0.52 0.503 0.776a2 2 0 1 1-3.337 2.205l-0.256-0.391-1e-3 -2e-3 -0.016-0.024-3e-3 -4e-3 -0.014-0.022-1e-3 -2e-3 -0.015-0.024-4e-3 -5e-3 -0.014-0.023-0.016-0.024-3e-3 -5e-3 -0.032-0.05a53.237 53.237 0 0 1-0.169-0.263 2 2 0 0 1 1.687-3.072zm-4.705-9.46a2 2 0 0 1 1.874 1.3c0.107 0.287 0.22 0.577 0.332 0.862a2.0001 2.0001 0 0 1-3.718 1.476 52.43 52.43 0 0 1-0.142-0.363l-2e-3 -6e-3a35.853 35.853 0 0 1-0.01-0.026l-4e-3 -0.01a24.596 24.596 0 0 1-0.011-0.029l-5e-3 -0.012-7e-3 -0.02-4e-3 -7e-3a33.558 33.558 0 0 1-0.01-0.025v-2e-3a36.378 36.378 0 0 1-0.01-0.026l-1e-3 -3e-3a53.037 53.037 0 0 1-0.155-0.408 2 2 0 0 1 1.873-2.702zm-2.65-10.227a2 2 0 0 1 1.975 1.701c0.046 0.304 0.095 0.61 0.147 0.913a2.0003 2.0003 0 0 1-3.943 0.677 52.94 52.94 0 0 1-0.024-0.144v-1e-3a17.879 17.879 0 0 1-5e-3 -0.028l-7e-3 -0.042-1e-3 -8e-3 -5e-3 -0.028v-1e-3a53.267 53.267 0 0 1-0.064-0.4v0l-5e-3 -0.03v-2e-3l-4e-3 -0.025-2e-3 -9e-3 -3e-3 -0.021-3e-3 -0.017-1e-3 -0.01a52.796 52.796 0 0 1-0.035-0.231 2 2 0 0 1 1.981-2.293zm-0.506-10.562a2 2 0 0 1 1.999 2.109c-0.017 0.306-0.03 0.617-0.042 0.924a2 2 0 0 1-3.997-0.137l7e-3 -0.206v-4e-3l2e-3 -0.036v-0.02l1e-3 -0.012v-0.014l2e-3 -0.023v-0.028l1e-3 -0.011 1e-3 -0.025v-0.01l2e-3 -0.017v-0.011l1e-3 -0.022v-0.012l1e-3 -0.017v-0.013l2e-3 -0.016v-0.02a9.18 9.18 0 0 1 2e-3 -0.027v-0.013l1e-3 -0.024 1e-3 -0.012v-0.015l1e-3 -0.011 1e-3 -0.025 1e-3 -0.012v-0.015l1e-3 -0.011 1e-3 -0.02 1e-3 -0.018v-0.014a7.17 7.17 0 0 1 2e-3 -0.026l1e-3 -0.024v-0.01l2e-3 -0.019a3.01 3.01 0 0 1 2e-3 -0.036v-1e-3l1e-3 -0.029v-2e-3l7e-3 -0.124a2 2 0 0 1 1.995-1.891zm1.657-10.438a2.003 2.003 0 0 1 1.934 2.517c-0.08 0.296-0.157 0.598-0.23 0.896a2.0003 2.0003 0 0 1-3.885-0.955c0.054-0.22 0.11-0.438 0.167-0.657v-3e-3l0.014-0.053 3e-3 -0.01 4e-3 -0.014 6e-3 -0.023c0-3e-3 0-4e-3 2e-3 -7e-3l6e-3 -0.023v-4e-3l0.048-0.18a2 2 0 0 1 1.931-1.484zm3.776-9.868a2 2 0 0 1 1.782 2.904 49.3 49.3 0 0 0-0.41 0.829 2.0001 2.0001 0 0 1-3.603-1.738l0.012-0.024 6e-3 -0.014 6e-3 -0.012 9e-3 -0.017 6e-3 -0.014 6e-3 -0.01 9e-3 -0.02 5e-3 -0.011 8e-3 -0.016a10.893 10.893 0 0 1 0.015-0.03l4e-3 -0.01 8e-3 -0.016 4e-3 -9e-3 0.01-0.02 6e-3 -0.01 7e-3 -0.016 0.021-0.042 5e-3 -0.012 0.015-0.03 8e-3 -0.014c0-3e-3 2e-3 -5e-3 3e-3 -7e-3a30.049 30.049 0 0 1 0.016-0.033c0.085-0.173 0.171-0.345 0.259-0.517a2 2 0 0 1 1.783-1.091zm5.723-8.885a2 2 0 0 1 1.56 3.25c-0.192 0.24-0.385 0.485-0.572 0.728a1.996 1.996 0 0 1-2.805 0.363 2 2 0 0 1-0.364-2.803l3e-3 -4e-3 0.016-0.022 1e-3 -1e-3 0.247-0.318 4e-3 -4e-3 0.016-0.021 5e-3 -7e-3 0.011-0.013 8e-3 -0.01 9e-3 -0.012 0.015-0.019 2e-3 -3e-3 0.285-0.358c0.395-0.49 0.974-0.746 1.559-0.746zm7.416-7.53a2 2 0 0 1 1.274 3.542 49.94 49.94 0 0 0-0.707 0.596 1.996 1.996 0 0 1-2.82-0.216 2 2 0 0 1 0.216-2.82l0.118-0.102h2e-3l0.019-0.017 6e-3 -5e-3 0.018-0.016 0.01-9e-3 8e-3 -6e-3c0.194-0.165 0.391-0.33 0.588-0.492a1.992 1.992 0 0 1 1.268-0.455zm8.798-5.856a2 2 0 0 1 0.933 3.77c-0.272 0.143-0.546 0.29-0.815 0.438a2.0001 2.0001 0 0 1-1.928-3.505l0.025-0.013 4e-3 -2e-3 0.021-0.012 0.013-7e-3 8e-3 -4e-3c0.01-6e-3 0.02-0.01 0.03-0.017 0.26-0.142 0.522-0.282 0.785-0.42a1.99 1.99 0 0 1 0.924-0.228zm9.814-3.921a2.001 2.001 0 0 1 0.544 3.925c-0.295 0.083-0.593 0.17-0.886 0.26a2 2 0 0 1-1.17-3.825c0.208-0.063 0.413-0.125 0.621-0.185h3e-3l0.056-0.017 3e-3 -1e-3a33.541 33.541 0 0 1 0.116-0.033l3e-3 -1e-3 0.057-0.017 0.11-0.031a2 2 0 0 1 0.543-0.075z" fill="#00489c"/>
    </g>
    <path class="cls-3" transform="translate(35.724,2.283)" d="m35.406 0a27.23 27.23 0 0 1 16.944 6.244c10.959 8.608 18.462 25.556 18.462 45.049 0 28.329-15.852 51.293-35.406 51.293s-35.406-22.964-35.406-51.293 15.852-51.293 35.406-51.293z" fill="url(#linear-gradient)" data-name="Path 1894"/>
   </g>
  </g>
 </g>
</svg>
