<svg xmlns="http://www.w3.org/2000/svg" width="74.2" height="70" viewBox="0 0 74.2 70">
    <defs>
        <style>
            .cls-1{fill:#0061c5;fill-rule:evenodd}
        </style>
    </defs>
    <path id="logo" d="M37.633 58.52c.328-3.6.59-7.2.852-10.87 1.508.851 3.015 1.572 4.523 2.292 6.423 2.947 11.6 4.387 15.731 4.387 3.8-.065 5.244-1.113 4.392-3.274a22.633 22.633 0 0 0-5.309-7.2 73.961 73.961 0 0 0-6.686-6.024H39.01c.131-2.685.2-5.37.262-8.12 2.36-1.244 4.719-2.423 7.144-3.471 5.309-2.292 9.045-3.012 11.208-2.292a2.081 2.081 0 0 1 1.639 2.552 9.955 9.955 0 0 1-2.1 4.322l5.047-3.471c1.049-2.03 1.376-3.405.918-4.191a3.746 3.746 0 0 0-2.032-1.7c-2.491-.786-6.751-.065-12.781 2.226a68.443 68.443 0 0 0-9.045 4.191c0-1.637.066-3.34.066-4.977h-3.407c0 2.292 0 4.584.066 6.81q-3.736 2.161-7.669 4.911c-1.049.72-2.1 1.441-3.015 2.161-4.129-3.405-6.948-6.352-8.455-8.906-1.639-2.816-.787-4.191 2.491-4.191a24.022 24.022 0 0 1 7.407 1.506 77.404 77.404 0 0 1 4.719 1.9v-1.639c-2.032-.917-3.933-1.7-5.834-2.357a28.579 28.579 0 0 0-9.373-1.9c-3.8.065-5.047 1.506-3.933 4.518 1.114 2.947 4.981 7.007 11.536 12.245a56.752 56.752 0 0 0-9.635 8.971c-3.081 3.8-3.146 6.155-.328 7.138a9.849 9.849 0 0 0 3.736.327 38.746 38.746 0 0 0 6.227-1.179c.787-.262 1.311-.393 1.7-.524l5.768-3.929c-3.867 1.441-9.7 4.322-13.9 2.881-2.229-.851-1.966-2.816.787-6.09a55.665 55.665 0 0 1 6.882-6.548 104.3 104.3 0 0 0 11.544 7.729l.983 11.787zm.983-12.572c.131-2.685.328-5.37.393-8.054l3.081 2.423h9.766c3.671 2.947 5.965 5.893 6.948 8.12 1.049 2.292 0 3.405-3.212 3.405-3.605-.065-7.931-1.375-13.306-3.994-1.244-.59-2.424-1.248-3.67-1.9zm-11.995-8.12a108.79 108.79 0 0 1 3.605-2.619 2.92 2.92 0 0 1 .524-.327 4.446 4.446 0 0 1 .59-.393c1.573-1.048 3.212-2.03 4.785-3.012.131 4.518.262 8.906.524 13.293a96.687 96.687 0 0 1-9.963-6.876zm11.012-20.692a2.1 2.1 0 1 1-2.1 2.1 2.111 2.111 0 0 1 2.1-2.1zm-24.71 48.325l.787.655 3.212-3.667-.787-.655zm-1.639-6.745l-1.377 3.668.721.851 3.736-3.143-.59-.72-2.687 2.228 1.376-3.732-.655-.786-3.736 3.075.59.72 2.622-2.161zm-5.44-3.666l-.721-1.31-.787.393 1.9 3.471.787-.393L6.3 55.9l3.539-1.964-.459-.786-3.539 1.9zm-3.868-7.072l1.114 3.405 4.654-1.506-1.114-3.536-.852.262.852 2.554-1.18.393-.721-2.226-.852.262.723 2.225-.983.327-.787-2.423zm4.064-3.864l-.131-.982-1.9.262-.131-1.048c-.066-.72.131-.851.852-.917a6.291 6.291 0 0 0 .983-.2l-.132-1.109H5.45c-.066.2-.2.262-.918.327-.918.131-1.049.327-1.18.786a1.145 1.145 0 0 0-1.245-.589 1.409 1.409 0 0 0-1.18 1.7l.328 2.423zm-2.818-.654l-1.311.131-.131-1.245c-.066-.589.262-.786.524-.786.459-.065.721.2.787.72zm.983-8.906L.666 36.191.6 37.239l4.85.393.066-.917-3.474-.327 3.605-1.7.066-.982-4.851-.396-.062.982 3.408.262zM5.45 29.97l.524-1.7h1.049l.328-1.048-5.178.327-.328 1.113 4.195 3.011.328-1.048zm-2.425-1.637l2.032-.065-.328 1.179zm2.032-6.221l.59-1.31-.787-.392-1.7 3.6.787.393.59-1.31 3.605 1.7.459-.917-3.544-1.763zM6.892 17.2l-.524.851 4.064 2.619.524-.851zm3.539-1.048a2.3 2.3 0 0 0 3.474.131 2.272 2.272 0 0 0-.2-3.471 2.243 2.243 0 0 0-3.474-.065 2.2 2.2 0 0 0 .2 3.405zm.721-.72c-.983-.917-.721-1.768-.328-2.161s1.18-.72 2.163.262a1.482 1.482 0 0 1 .328 2.161c-.392.394-1.179.722-2.162-.261zM18.756 10l-3.539-1.639-.852.589 2.818 3.994.787-.524L16 9.606l3.605 1.7.852-.589-2.815-3.993-.787.524 1.9 2.75zm4.392-2.03l1.639-.72.721.786.983-.458-3.54-3.735-1.114.457.393 5.173.983-.458-.066-1.048zm-.328-2.883l1.38 1.506-1.114.524-.262-2.03zm5.7-3.143l-.983.2.983 4.78 3.343-.72-.2-.851-2.36.524-.787-3.929zm11.733.524A1.978 1.978 0 0 0 38.158.7c-1.245 0-2.229.851-2.294 2.554 0 1.7.918 2.554 2.163 2.619a2.083 2.083 0 0 0 2.163-1.768h-1.049a1.069 1.069 0 0 1-1.114.917c-.852 0-1.18-.786-1.18-1.7 0-1.375.721-1.7 1.245-1.7a.962.962 0 0 1 1.049.851zm2.556 1.179a2.3 2.3 0 0 0 1.77 3.012 2.273 2.273 0 0 0 2.821-2.03 2.3 2.3 0 0 0-1.77-3.012 2.273 2.273 0 0 0-2.818 2.03zm.983.2c.262-1.31 1.114-1.506 1.639-1.375s1.245.589.918 1.964c-.262 1.31-1.114 1.506-1.639 1.375s-1.178-.658-.916-1.968zm5.7 2.488c-.262.524-.393 1.637 1.245 2.357a1.731 1.731 0 0 0 2.425-.655 1.3 1.3 0 0 0-.655-1.7l-.983-.851a.509.509 0 0 1-.262-.655c.2-.393.655-.327.983-.2.787.393.655.851.59 1.048l.918.393c.262-.524.262-1.572-1.114-2.226-1.442-.655-2.1.131-2.294.589-.459.982.2 1.441.852 1.964l.459.327c.393.327.721.589.59.917-.2.458-.721.327-1.18.131-.787-.393-.721-.917-.59-1.113l-.976-.33zm11.672 2.812l-1.18-.847-2.884 2.615 1.508-3.667-1.246-.848-2.818 3.994.787.524 2.36-3.34-1.639 3.863.787.589 3.081-2.816-2.36 3.34.787.524 2.818-3.929zm4.981 4.977l-2.49-2.554-3.474 3.405 2.556 2.685.59-.589-1.9-1.964.918-.851 1.639 1.7.59-.589-1.639-1.7.721-.72 1.77 1.833zm2.426 4.976l.787 1.244.721-.458-2.163-3.34-.722.454.787 1.244-3.343 2.166.524.851zm3.146 4.191l-.459-.917-4.391 2.026.459.917zm.721 7.465a1.907 1.907 0 0 0 1.049-2.488c-.328-1.179-1.442-1.9-3.081-1.441s-2.229 1.572-1.835 2.816a1.963 1.963 0 0 0 2.294 1.506l-.262-.982a1.038 1.038 0 0 1-1.18-.786c-.262-.851.393-1.375 1.245-1.637 1.311-.393 1.835.2 1.966.72a.934.934 0 0 1-.524 1.244l.328 1.048zm-.852 7.4v1.113a1.184 1.184 0 0 1-1.049-1.179c0-.72.393-1.441 1.7-1.375 1.245 0 1.77.72 1.7 1.441a1.069 1.069 0 0 1-.852 1.048v1.048a1.979 1.979 0 0 0 1.7-2.1 2.305 2.305 0 0 0-2.556-2.423 2.359 2.359 0 0 0-2.622 2.161 1.659 1.659 0 0 0 .733 1.51l-.59.065v.655l2.622.065.066-2.03h-.852zm-2.1 4.518l-.2.982 1.835.458-.262 1.048c-.2.72-.459.72-1.049.589a3.1 3.1 0 0 0-.983-.131l-.262 1.113h.135c.131-.2.328-.131.983 0 .918.2 1.049 0 1.311-.327a1.181 1.181 0 0 0 .983.982 1.436 1.436 0 0 0 1.7-1.179l.524-2.423zm2.425 1.572l1.245.262-.256 1.243c-.131.589-.524.589-.787.524-.459-.131-.59-.393-.459-.917l.262-1.113zm-1.639 5.37A2.262 2.262 0 0 0 67 50.728a2.292 2.292 0 0 0 1.376 3.209 2.262 2.262 0 0 0 3.277-1.113 2.23 2.23 0 0 0-1.378-3.209zm-.393.917c1.245.524 1.245 1.375 1.049 1.9s-.852 1.048-2.1.524-1.245-1.375-1.049-1.9.857-1.115 2.103-.525zm-3.144 10.345l.59-.851-2.625-1.834a.833.833 0 0 1-.2-1.31c.262-.393.721-.524 1.311-.131l2.622 1.833.59-.851-2.615-1.834a2.116 2.116 0 0 0-1.18-.393 2.16 2.16 0 0 0-1.376.917 1.7 1.7 0 0 0 .328 2.685l2.556 1.768zm-5.309 1.048l-.852.786a1.6 1.6 0 0 0-.066 2.226 1.393 1.393 0 0 0 2.164.062l1.573-1.572-3.408-3.471-.721.72 1.311 1.244zm.59.589L63 63.562l-.59.589c-.459.458-.787.458-1.114.131a.654.654 0 0 1 0-1.048zm-38.737 7.923h3.211v-8.185h-3.211zm12.585-4.715h3.671c-.131-2.357-1.966-3.667-5.44-3.667-3.671 0-5.506 1.506-5.506 4.322s1.834 4.322 5.505 4.322c3.277 0 5.113-1.179 5.44-3.471h-3.671a1.566 1.566 0 0 1-1.77 1.31 2.23 2.23 0 0 1 0-4.453 1.655 1.655 0 0 1 1.77 1.637zm14.354 3.994l.328.72h1.442v-4.648H47.4v1.768h1.31c-.131.655-.852 1.048-1.966 1.048a2.053 2.053 0 0 1-2.229-2.292 2.121 2.121 0 0 1 2.163-2.357 1.768 1.768 0 0 1 1.7.982h3.474c-.262-1.768-2.1-2.947-5.244-2.947-3.671 0-5.506 1.506-5.506 4.322s1.835 4.322 5.506 4.322a4.858 4.858 0 0 0 3.6-.917z" class="cls-1" transform="translate(-.6 -.7)"/>
</svg>
